<svg width="178" height="46" viewBox="0 0 178 46" fill="none" xmlns="http://www.w3.org/2000/svg">
<path d="M18.4299 2.80474C13.6746 3.19069 9.21228 5.25746 5.84245 8.63466C2.47263 12.0119 0.415624 16.4787 0.0400669 21.2348C-0.0133556 22.2898 -0.0133556 23.3469 0.0400669 24.4019C0.417501 29.1782 2.49099 33.6619 5.88582 37.0428C9.28065 40.4237 13.7729 42.4787 18.5507 42.8364C18.9577 42.8633 21.0736 42.8767 25.113 42.8678H28.0699L25.1891 39.4725L22.3082 36.0728H22.2143C19.0025 36.0728 18.8101 36.0415 17.741 35.8581C15.5706 35.4687 13.5309 34.5464 11.8049 33.1741C11.0549 32.5366 10.3578 31.8395 9.72033 31.0895C8.15248 29.1313 7.17632 26.7662 6.90661 24.2722C6.78822 23.0284 6.83032 21.7745 7.03186 20.5414C7.42128 18.371 8.34354 16.3313 9.71585 14.6053C10.3533 13.8554 11.0505 13.1583 11.8004 12.5208C13.5257 11.1473 15.5657 10.2249 17.7365 9.83679C18.7967 9.65338 18.989 9.64444 22.2098 9.62207H22.3038L25.0906 6.26261C26.6295 4.45092 27.9312 2.91657 27.9804 2.85841L28.0788 2.74658H24.9475C21.588 2.76895 18.6491 2.78684 18.4299 2.80474Z" fill="#333333"/>
<path d="M30.7007 22.5103V35.0355C30.7007 35.0355 29.3587 35.2637 27.3949 34.1901C25.4311 33.1165 25.0464 31.8326 25.0464 31.8326L30.7007 22.5103Z" fill="#F97F00"/>
<path fill-rule="evenodd" clip-rule="evenodd" d="M10.6416 22.8138C10.6443 20.829 11.2352 18.8895 12.3399 17.2405C13.4445 15.5916 15.0131 14.307 16.8476 13.5493C18.6821 12.7916 20.7 12.5947 22.6463 12.9836C24.5926 13.3724 26.38 14.3295 27.7825 15.7339C29.185 17.1383 30.1397 18.9269 30.526 20.8738C30.9122 22.8206 30.7126 24.8383 29.9525 26.6717C29.1923 28.5052 27.9057 30.0721 26.2552 31.1745C24.6048 32.2769 22.6645 32.8653 20.6797 32.8653C19.3604 32.8653 18.054 32.6052 16.8352 32.0999C15.6165 31.5946 14.5093 30.854 13.577 29.9205C12.6447 28.9869 11.9055 27.8787 11.4019 26.6593C10.8982 25.4399 10.6398 24.1331 10.6416 22.8138ZM20.6797 18.3897C19.8042 18.387 18.9475 18.6442 18.2182 19.1287C17.4889 19.6132 16.9197 20.3033 16.5828 21.1114C16.2459 21.9196 16.1564 22.8095 16.3256 23.6686C16.4948 24.5277 16.9151 25.3172 17.5332 25.9373C18.1514 26.5574 18.9397 26.9801 19.7983 27.1519C20.6568 27.3237 21.5471 27.2368 22.3562 26.9024C23.1654 26.5679 23.8572 26.0009 24.3439 25.2731C24.8306 24.5452 25.0904 23.6893 25.0904 22.8138C25.0869 21.6451 24.6211 20.5253 23.7947 19.6989C22.9683 18.8725 21.8484 18.4066 20.6797 18.4031V18.3897Z" fill="#FF9C3C"/>
<path d="M52.539 31.3443C54.2103 31.3522 55.8566 30.9383 57.3255 30.141V25.8063C55.8538 27.1483 54.5162 27.8104 52.4585 27.8104C51.5351 27.8086 50.621 27.625 49.7685 27.27C48.916 26.9149 48.1418 26.3955 47.49 25.7413C46.1738 24.42 45.4363 22.6299 45.4399 20.7649C45.4434 18.8999 46.1877 17.1127 47.509 15.7964C48.8303 14.4802 50.6203 13.7427 52.4854 13.7463C54.4089 13.7463 55.8001 14.3591 57.3255 15.7235V11.4246C55.8566 10.6273 54.2103 10.2134 52.539 10.2213C51.1521 10.2213 49.7787 10.4945 48.4973 11.0252C47.2159 11.556 46.0517 12.334 45.0709 13.3147C44.0902 14.2954 43.3123 15.4597 42.7815 16.7411C42.2507 18.0225 41.9775 19.3958 41.9775 20.7828C41.9775 22.1698 42.2507 23.5431 42.7815 24.8245C43.3123 26.1059 44.0902 27.2702 45.0709 28.2509C46.0517 29.2316 47.2159 30.0096 48.4973 30.5404C49.7787 31.0711 51.1521 31.3443 52.539 31.3443Z" fill="#333333"/>
<path d="M68.0348 20.7566V17.3614C67.8748 17.339 67.7132 17.33 67.5517 17.3345C66.8027 17.3138 66.0631 17.5062 65.4192 17.8896C64.7754 18.2729 64.2537 18.8312 63.9149 19.4996V17.5985H60.4302V31.0766H63.8791V25.1136C63.897 21.1816 65.9547 20.354 68.0348 20.7566Z" fill="#333333"/>
<path d="M76.5342 28.182C75.7687 28.19 75.0181 27.9704 74.3775 27.5512C73.737 27.132 73.2353 26.532 72.9363 25.8273C72.6372 25.1226 72.5541 24.3449 72.6975 23.593C72.841 22.841 73.2046 22.1485 73.7421 21.6034C74.2796 21.0584 74.9669 20.6852 75.7169 20.5313C76.4668 20.3773 77.2455 20.4496 77.9543 20.7388C78.6631 21.0281 79.27 21.5213 79.6981 22.1559C80.1262 22.7906 80.3562 23.5381 80.3589 24.3036C80.3642 24.8099 80.2693 25.3122 80.0797 25.7817C79.89 26.2511 79.6093 26.6784 79.2538 27.0389C78.8983 27.3994 78.475 27.686 78.0082 27.8822C77.5415 28.0784 77.0405 28.1803 76.5342 28.182ZM75.8677 31.3357C76.7286 31.3751 77.5868 31.2147 78.3753 30.867C79.1638 30.5193 79.8611 29.9938 80.4126 29.3316L80.4931 31.0718H83.7273V17.5981H80.2516V19.1235C79.7032 18.5105 79.0254 18.0272 78.2672 17.7084C77.509 17.3897 76.6894 17.2435 75.8677 17.2805C72.2309 17.2805 69.2114 20.4118 69.2114 24.3126C69.2114 28.2133 72.2488 31.3446 75.8856 31.3446L75.8677 31.3357Z" fill="#333333"/>
<path d="M106.886 17.5977H103.115L100.202 24.6297L97.5005 17.5977H94.8523L92.1504 24.6297L89.2383 17.5977H85.4673L91.8865 31.6081L96.1898 22.147L100.466 31.6081L106.886 17.5977Z" fill="#333333"/>
<path d="M111.99 10.4902H108.541V31.0764H111.99V10.4902Z" fill="#333333"/>
<path d="M120.636 24.0709L123.204 17.8083L125.772 24.0709H120.636ZM128.63 31.0761H132.562L123.204 9.95312L113.846 31.0761H117.778L119.303 27.332H127.109L128.63 31.0761Z" fill="#FF9C3C"/>
<path d="M141.495 28.182C140.733 28.1873 139.985 27.9659 139.348 27.546C138.711 27.126 138.214 26.5263 137.918 25.823C137.622 25.1198 137.542 24.3445 137.688 23.5956C137.833 22.8467 138.198 22.158 138.736 21.6166C139.273 21.0753 139.959 20.7058 140.707 20.555C141.455 20.4042 142.231 20.4789 142.936 20.7696C143.642 21.0603 144.245 21.5539 144.669 22.1879C145.093 22.8218 145.32 23.5675 145.32 24.3304C145.32 25.3473 144.918 26.3229 144.201 27.0444C143.485 27.766 142.512 28.1749 141.495 28.182ZM134.383 37.2181H137.859V29.6134C138.419 30.1721 139.087 30.6117 139.822 30.9061C140.557 31.2005 141.344 31.3436 142.135 31.3267C145.772 31.3267 148.765 28.2267 148.765 24.3215C148.765 20.4163 145.772 17.3163 142.135 17.3163C141.344 17.2994 140.557 17.4425 139.822 17.7369C139.087 18.0312 138.419 18.4709 137.859 19.0296V17.5981H134.383V37.2181Z" fill="#FF9C3C"/>
<path d="M158.597 28.1821C157.834 28.1875 157.087 27.9659 156.449 27.5455C155.812 27.1251 155.315 26.525 155.019 25.8211C154.724 25.1173 154.644 24.3416 154.79 23.5925C154.937 22.8434 155.302 22.1546 155.841 21.6136C156.379 21.0727 157.066 20.7039 157.815 20.5541C158.563 20.4043 159.339 20.4803 160.044 20.7723C160.75 21.0644 161.352 21.5594 161.775 22.1946C162.199 22.8297 162.424 23.5763 162.422 24.3396C162.42 25.3549 162.017 26.3282 161.3 27.0478C160.584 27.7674 159.613 28.1751 158.597 28.1821ZM151.485 37.2182H154.961V29.6136C155.522 30.1722 156.189 30.6119 156.924 30.9063C157.659 31.2007 158.446 31.3437 159.237 31.3269C162.874 31.3269 165.867 28.2269 165.867 24.3217C165.867 20.4165 162.869 17.3343 159.242 17.3343C158.45 17.3175 157.663 17.4605 156.929 17.7549C156.194 18.0493 155.526 18.489 154.965 19.0476V17.5983H151.489L151.485 37.2182Z" fill="#FF9C3C"/>
<path d="M172.576 31.3446C175.515 31.3446 177.631 29.846 177.631 27.1217C177.631 24.3975 175.6 23.5118 173.605 22.8453C172.026 22.3353 171.064 22.0714 171.064 21.1588C171.064 20.4655 171.628 20.0092 172.482 20.0092C173.51 20.0932 174.468 20.5612 175.166 21.3199L177.197 19.2621C176.603 18.6363 175.885 18.1418 175.088 17.8105C174.291 17.4792 173.434 17.3184 172.572 17.3386C169.977 17.3386 167.624 18.7298 167.624 21.4541C167.624 23.807 169.387 24.7419 171.476 25.48C173.081 26.0437 174.16 26.2808 174.16 27.2202C174.16 27.9404 173.52 28.504 172.446 28.504C171.209 28.4195 170.052 27.864 169.212 26.9518L167.262 29.3316C168.706 30.6641 170.611 31.3855 172.576 31.3446Z" fill="#FF9C3C"/>
</svg>
